<?xml version="1.0" encoding="UTF-8" standalone="no"?>
<!DOCTYPE svg PUBLIC "-//W3C//DTD SVG 1.1//EN" "http://www.w3.org/Graphics/SVG/1.1/DTD/svg11.dtd">
<!-- Created with Vectornator (http://vectornator.io/) -->
<svg height="100%" stroke-miterlimit="10" style="fill-rule:nonzero;clip-rule:evenodd;stroke-linecap:round;stroke-linejoin:round;" version="1.1" viewBox="0 0 820 312" width="100%" xml:space="preserve" xmlns="http://www.w3.org/2000/svg" xmlns:vectornator="http://vectornator.io" xmlns:xlink="http://www.w3.org/1999/xlink">
<defs/>
<g id="Layer-1" vectornator:layerName="Layer 1">
<g fill="#e8e8e8" opacity="1" stroke="none" vectornator:layerName="Text 1">
<path d="M204.088 37.0888L204.088 274.247L150.182 274.247L150.182 114.14L128.648 274.247L90.416 274.247L67.7109 117.802L67.7109 274.247L13.8047 274.247L13.8047 37.0888L93.6387 37.0888C95.9824 51.3467 98.4727 68.1435 101.109 87.4795L109.605 147.831L123.668 37.0888L204.088 37.0888Z"/>
<path d="M303.023 37.0888L303.023 67.9971L242.086 67.9971L242.086 37.0888L303.023 37.0888ZM303.023 79.8623L303.023 274.247L242.086 274.247L242.086 79.8623L303.023 79.8623Z"/>
<path d="M402.691 37.0888L402.691 226.786L440.191 226.786L440.191 274.247L341.021 274.247L341.021 37.0888L402.691 37.0888Z"/>
<path d="M617.057 37.0888L581.754 144.169L620.426 274.247L556.705 274.247L531.803 172.587L531.803 274.247L470.133 274.247L470.133 37.0888L531.803 37.0888L531.803 129.228L559.195 37.0888L617.057 37.0888Z"/>
</g>
</g>
</svg>
